<mxfile host="app.diagrams.net" agent="Mozilla/5.0 (Macintosh; Intel Mac OS X 10_15_7) AppleWebKit/605.1.15 (KHTML, like Gecko) Version/16.6 Safari/605.1.15" version="25.0.3">
  <diagram name="Trang-1" id="Ic_6IBqflgvEff83gMx8">
    <mxGraphModel dx="954" dy="623" grid="1" gridSize="10" guides="1" tooltips="1" connect="1" arrows="1" fold="1" page="1" pageScale="1" pageWidth="827" pageHeight="1169" math="0" shadow="0">
      <root>
        <mxCell id="0" />
        <mxCell id="1" parent="0" />
        <mxCell id="W8wq9E3jOlAvUwIORAxE-1" value="Start" style="ellipse;whiteSpace=wrap;html=1;" vertex="1" parent="1">
          <mxGeometry x="10" y="340" width="120" height="80" as="geometry" />
        </mxCell>
        <mxCell id="W8wq9E3jOlAvUwIORAxE-2" value="Input n" style="shape=parallelogram;perimeter=parallelogramPerimeter;whiteSpace=wrap;html=1;fixedSize=1;" vertex="1" parent="1">
          <mxGeometry x="10" y="470" width="120" height="60" as="geometry" />
        </mxCell>
        <mxCell id="W8wq9E3jOlAvUwIORAxE-34" style="edgeStyle=orthogonalEdgeStyle;rounded=0;orthogonalLoop=1;jettySize=auto;html=1;exitX=1;exitY=0.5;exitDx=0;exitDy=0;entryX=0;entryY=0.5;entryDx=0;entryDy=0;" edge="1" parent="1" source="W8wq9E3jOlAvUwIORAxE-3" target="W8wq9E3jOlAvUwIORAxE-21">
          <mxGeometry relative="1" as="geometry" />
        </mxCell>
        <mxCell id="W8wq9E3jOlAvUwIORAxE-3" value="n&amp;lt;4" style="rhombus;whiteSpace=wrap;html=1;" vertex="1" parent="1">
          <mxGeometry x="30" y="580" width="80" height="80" as="geometry" />
        </mxCell>
        <mxCell id="W8wq9E3jOlAvUwIORAxE-47" style="edgeStyle=orthogonalEdgeStyle;rounded=0;orthogonalLoop=1;jettySize=auto;html=1;exitX=0;exitY=0;exitDx=40;exitDy=40;exitPerimeter=0;" edge="1" parent="1" source="W8wq9E3jOlAvUwIORAxE-4">
          <mxGeometry relative="1" as="geometry">
            <mxPoint x="440" y="990" as="targetPoint" />
          </mxGeometry>
        </mxCell>
        <mxCell id="W8wq9E3jOlAvUwIORAxE-4" value="Trung bình" style="shape=display;whiteSpace=wrap;html=1;" vertex="1" parent="1">
          <mxGeometry x="170" y="800" width="80" height="40" as="geometry" />
        </mxCell>
        <mxCell id="W8wq9E3jOlAvUwIORAxE-46" style="edgeStyle=orthogonalEdgeStyle;rounded=0;orthogonalLoop=1;jettySize=auto;html=1;exitX=0;exitY=0;exitDx=40;exitDy=40;exitPerimeter=0;" edge="1" parent="1" source="W8wq9E3jOlAvUwIORAxE-5" target="W8wq9E3jOlAvUwIORAxE-6">
          <mxGeometry relative="1" as="geometry" />
        </mxCell>
        <mxCell id="W8wq9E3jOlAvUwIORAxE-5" value="Không đạt" style="shape=display;whiteSpace=wrap;html=1;" vertex="1" parent="1">
          <mxGeometry x="30" y="800" width="80" height="40" as="geometry" />
        </mxCell>
        <mxCell id="W8wq9E3jOlAvUwIORAxE-11" value="" style="endArrow=classic;html=1;rounded=0;exitX=0.5;exitY=1;exitDx=0;exitDy=0;entryX=0.5;entryY=0;entryDx=0;entryDy=0;" edge="1" parent="1" source="W8wq9E3jOlAvUwIORAxE-2" target="W8wq9E3jOlAvUwIORAxE-3">
          <mxGeometry width="50" height="50" relative="1" as="geometry">
            <mxPoint x="146" y="660" as="sourcePoint" />
            <mxPoint x="196" y="610" as="targetPoint" />
          </mxGeometry>
        </mxCell>
        <mxCell id="W8wq9E3jOlAvUwIORAxE-12" value="" style="endArrow=classic;html=1;rounded=0;exitX=0.5;exitY=1;exitDx=0;exitDy=0;entryX=0.5;entryY=0;entryDx=0;entryDy=0;" edge="1" parent="1" source="W8wq9E3jOlAvUwIORAxE-1" target="W8wq9E3jOlAvUwIORAxE-2">
          <mxGeometry width="50" height="50" relative="1" as="geometry">
            <mxPoint x="146" y="660" as="sourcePoint" />
            <mxPoint x="196" y="610" as="targetPoint" />
          </mxGeometry>
        </mxCell>
        <mxCell id="W8wq9E3jOlAvUwIORAxE-6" value="End" style="ellipse;whiteSpace=wrap;html=1;" vertex="1" parent="1">
          <mxGeometry x="380" y="990" width="120" height="80" as="geometry" />
        </mxCell>
        <mxCell id="W8wq9E3jOlAvUwIORAxE-14" value="True" style="text;html=1;align=center;verticalAlign=middle;whiteSpace=wrap;rounded=0;" vertex="1" parent="1">
          <mxGeometry x="60" y="660" width="60" height="30" as="geometry" />
        </mxCell>
        <mxCell id="W8wq9E3jOlAvUwIORAxE-15" value="False" style="text;html=1;align=center;verticalAlign=middle;whiteSpace=wrap;rounded=0;" vertex="1" parent="1">
          <mxGeometry x="100" y="570" width="60" height="30" as="geometry" />
        </mxCell>
        <mxCell id="W8wq9E3jOlAvUwIORAxE-35" style="edgeStyle=orthogonalEdgeStyle;rounded=0;orthogonalLoop=1;jettySize=auto;html=1;exitX=1;exitY=0.5;exitDx=0;exitDy=0;entryX=0;entryY=0.5;entryDx=0;entryDy=0;" edge="1" parent="1" source="W8wq9E3jOlAvUwIORAxE-21" target="W8wq9E3jOlAvUwIORAxE-22">
          <mxGeometry relative="1" as="geometry" />
        </mxCell>
        <mxCell id="W8wq9E3jOlAvUwIORAxE-21" value="4&amp;lt;=n&amp;lt;=6" style="rhombus;whiteSpace=wrap;html=1;" vertex="1" parent="1">
          <mxGeometry x="170" y="580" width="80" height="80" as="geometry" />
        </mxCell>
        <mxCell id="W8wq9E3jOlAvUwIORAxE-36" style="edgeStyle=orthogonalEdgeStyle;rounded=0;orthogonalLoop=1;jettySize=auto;html=1;exitX=1;exitY=0.5;exitDx=0;exitDy=0;entryX=0;entryY=0.5;entryDx=0;entryDy=0;" edge="1" parent="1" source="W8wq9E3jOlAvUwIORAxE-22" target="W8wq9E3jOlAvUwIORAxE-23">
          <mxGeometry relative="1" as="geometry" />
        </mxCell>
        <mxCell id="W8wq9E3jOlAvUwIORAxE-22" value="6&amp;lt;n&amp;lt;=8" style="rhombus;whiteSpace=wrap;html=1;" vertex="1" parent="1">
          <mxGeometry x="300" y="580" width="80" height="80" as="geometry" />
        </mxCell>
        <mxCell id="W8wq9E3jOlAvUwIORAxE-37" style="edgeStyle=orthogonalEdgeStyle;rounded=0;orthogonalLoop=1;jettySize=auto;html=1;exitX=1;exitY=0.5;exitDx=0;exitDy=0;entryX=0;entryY=0.5;entryDx=0;entryDy=0;" edge="1" parent="1" source="W8wq9E3jOlAvUwIORAxE-23" target="W8wq9E3jOlAvUwIORAxE-24">
          <mxGeometry relative="1" as="geometry" />
        </mxCell>
        <mxCell id="W8wq9E3jOlAvUwIORAxE-23" value="8&amp;lt;n&amp;lt;=9" style="rhombus;whiteSpace=wrap;html=1;" vertex="1" parent="1">
          <mxGeometry x="430" y="580" width="80" height="80" as="geometry" />
        </mxCell>
        <mxCell id="W8wq9E3jOlAvUwIORAxE-38" style="edgeStyle=orthogonalEdgeStyle;rounded=0;orthogonalLoop=1;jettySize=auto;html=1;exitX=1;exitY=0.5;exitDx=0;exitDy=0;entryX=0;entryY=0.5;entryDx=0;entryDy=0;" edge="1" parent="1" source="W8wq9E3jOlAvUwIORAxE-24" target="W8wq9E3jOlAvUwIORAxE-25">
          <mxGeometry relative="1" as="geometry" />
        </mxCell>
        <mxCell id="W8wq9E3jOlAvUwIORAxE-24" value="9&amp;lt;n&amp;lt;=10" style="rhombus;whiteSpace=wrap;html=1;" vertex="1" parent="1">
          <mxGeometry x="560" y="580" width="80" height="80" as="geometry" />
        </mxCell>
        <mxCell id="W8wq9E3jOlAvUwIORAxE-25" value="n&amp;gt;10" style="rhombus;whiteSpace=wrap;html=1;" vertex="1" parent="1">
          <mxGeometry x="680" y="580" width="80" height="80" as="geometry" />
        </mxCell>
        <mxCell id="W8wq9E3jOlAvUwIORAxE-48" style="edgeStyle=orthogonalEdgeStyle;rounded=0;orthogonalLoop=1;jettySize=auto;html=1;exitX=0;exitY=0;exitDx=40;exitDy=40;exitPerimeter=0;" edge="1" parent="1" source="W8wq9E3jOlAvUwIORAxE-29">
          <mxGeometry relative="1" as="geometry">
            <mxPoint x="440" y="990" as="targetPoint" />
          </mxGeometry>
        </mxCell>
        <mxCell id="W8wq9E3jOlAvUwIORAxE-29" value="Khá" style="shape=display;whiteSpace=wrap;html=1;" vertex="1" parent="1">
          <mxGeometry x="300" y="800" width="80" height="40" as="geometry" />
        </mxCell>
        <mxCell id="W8wq9E3jOlAvUwIORAxE-49" style="edgeStyle=orthogonalEdgeStyle;rounded=0;orthogonalLoop=1;jettySize=auto;html=1;exitX=0;exitY=0;exitDx=40;exitDy=40;exitPerimeter=0;" edge="1" parent="1" source="W8wq9E3jOlAvUwIORAxE-30">
          <mxGeometry relative="1" as="geometry">
            <mxPoint x="440" y="990" as="targetPoint" />
          </mxGeometry>
        </mxCell>
        <mxCell id="W8wq9E3jOlAvUwIORAxE-30" value="Giỏi" style="shape=display;whiteSpace=wrap;html=1;" vertex="1" parent="1">
          <mxGeometry x="430" y="800" width="80" height="40" as="geometry" />
        </mxCell>
        <mxCell id="W8wq9E3jOlAvUwIORAxE-50" style="edgeStyle=orthogonalEdgeStyle;rounded=0;orthogonalLoop=1;jettySize=auto;html=1;exitX=0;exitY=0;exitDx=40;exitDy=40;exitPerimeter=0;" edge="1" parent="1" source="W8wq9E3jOlAvUwIORAxE-31">
          <mxGeometry relative="1" as="geometry">
            <mxPoint x="440" y="990" as="targetPoint" />
          </mxGeometry>
        </mxCell>
        <mxCell id="W8wq9E3jOlAvUwIORAxE-31" value="Xuất sắc" style="shape=display;whiteSpace=wrap;html=1;" vertex="1" parent="1">
          <mxGeometry x="560" y="800" width="80" height="40" as="geometry" />
        </mxCell>
        <mxCell id="W8wq9E3jOlAvUwIORAxE-51" style="edgeStyle=orthogonalEdgeStyle;rounded=0;orthogonalLoop=1;jettySize=auto;html=1;exitX=0;exitY=0;exitDx=40;exitDy=40;exitPerimeter=0;" edge="1" parent="1" source="W8wq9E3jOlAvUwIORAxE-32" target="W8wq9E3jOlAvUwIORAxE-6">
          <mxGeometry relative="1" as="geometry" />
        </mxCell>
        <mxCell id="W8wq9E3jOlAvUwIORAxE-32" value="Không hợp lệ" style="shape=display;whiteSpace=wrap;html=1;" vertex="1" parent="1">
          <mxGeometry x="680" y="800" width="80" height="40" as="geometry" />
        </mxCell>
        <mxCell id="W8wq9E3jOlAvUwIORAxE-40" style="edgeStyle=orthogonalEdgeStyle;rounded=0;orthogonalLoop=1;jettySize=auto;html=1;exitX=0.5;exitY=1;exitDx=0;exitDy=0;entryX=0;entryY=0;entryDx=40;entryDy=0;entryPerimeter=0;" edge="1" parent="1" source="W8wq9E3jOlAvUwIORAxE-3" target="W8wq9E3jOlAvUwIORAxE-5">
          <mxGeometry relative="1" as="geometry" />
        </mxCell>
        <mxCell id="W8wq9E3jOlAvUwIORAxE-41" style="edgeStyle=orthogonalEdgeStyle;rounded=0;orthogonalLoop=1;jettySize=auto;html=1;exitX=0.5;exitY=1;exitDx=0;exitDy=0;entryX=0;entryY=0;entryDx=40;entryDy=0;entryPerimeter=0;" edge="1" parent="1" source="W8wq9E3jOlAvUwIORAxE-21" target="W8wq9E3jOlAvUwIORAxE-4">
          <mxGeometry relative="1" as="geometry" />
        </mxCell>
        <mxCell id="W8wq9E3jOlAvUwIORAxE-42" style="edgeStyle=orthogonalEdgeStyle;rounded=0;orthogonalLoop=1;jettySize=auto;html=1;exitX=0.5;exitY=1;exitDx=0;exitDy=0;entryX=0;entryY=0;entryDx=40;entryDy=0;entryPerimeter=0;" edge="1" parent="1" source="W8wq9E3jOlAvUwIORAxE-22" target="W8wq9E3jOlAvUwIORAxE-29">
          <mxGeometry relative="1" as="geometry" />
        </mxCell>
        <mxCell id="W8wq9E3jOlAvUwIORAxE-43" style="edgeStyle=orthogonalEdgeStyle;rounded=0;orthogonalLoop=1;jettySize=auto;html=1;exitX=0.5;exitY=1;exitDx=0;exitDy=0;entryX=0;entryY=0;entryDx=40;entryDy=0;entryPerimeter=0;" edge="1" parent="1" source="W8wq9E3jOlAvUwIORAxE-23" target="W8wq9E3jOlAvUwIORAxE-30">
          <mxGeometry relative="1" as="geometry" />
        </mxCell>
        <mxCell id="W8wq9E3jOlAvUwIORAxE-44" style="edgeStyle=orthogonalEdgeStyle;rounded=0;orthogonalLoop=1;jettySize=auto;html=1;exitX=0.5;exitY=1;exitDx=0;exitDy=0;entryX=0;entryY=0;entryDx=40;entryDy=0;entryPerimeter=0;" edge="1" parent="1" source="W8wq9E3jOlAvUwIORAxE-24" target="W8wq9E3jOlAvUwIORAxE-31">
          <mxGeometry relative="1" as="geometry" />
        </mxCell>
        <mxCell id="W8wq9E3jOlAvUwIORAxE-45" style="edgeStyle=orthogonalEdgeStyle;rounded=0;orthogonalLoop=1;jettySize=auto;html=1;exitX=0.5;exitY=1;exitDx=0;exitDy=0;entryX=0;entryY=0;entryDx=40;entryDy=0;entryPerimeter=0;" edge="1" parent="1" source="W8wq9E3jOlAvUwIORAxE-25" target="W8wq9E3jOlAvUwIORAxE-32">
          <mxGeometry relative="1" as="geometry" />
        </mxCell>
        <mxCell id="W8wq9E3jOlAvUwIORAxE-52" value="False" style="text;html=1;align=center;verticalAlign=middle;whiteSpace=wrap;rounded=0;" vertex="1" parent="1">
          <mxGeometry x="250" y="570" width="60" height="30" as="geometry" />
        </mxCell>
        <mxCell id="W8wq9E3jOlAvUwIORAxE-53" value="False" style="text;html=1;align=center;verticalAlign=middle;whiteSpace=wrap;rounded=0;" vertex="1" parent="1">
          <mxGeometry x="630" y="570" width="60" height="30" as="geometry" />
        </mxCell>
        <mxCell id="W8wq9E3jOlAvUwIORAxE-54" value="False" style="text;html=1;align=center;verticalAlign=middle;whiteSpace=wrap;rounded=0;" vertex="1" parent="1">
          <mxGeometry x="500" y="570" width="60" height="30" as="geometry" />
        </mxCell>
        <mxCell id="W8wq9E3jOlAvUwIORAxE-55" value="False" style="text;html=1;align=center;verticalAlign=middle;whiteSpace=wrap;rounded=0;" vertex="1" parent="1">
          <mxGeometry x="370" y="570" width="60" height="30" as="geometry" />
        </mxCell>
        <mxCell id="W8wq9E3jOlAvUwIORAxE-56" value="True" style="text;html=1;align=center;verticalAlign=middle;whiteSpace=wrap;rounded=0;" vertex="1" parent="1">
          <mxGeometry x="610" y="660" width="60" height="30" as="geometry" />
        </mxCell>
        <mxCell id="W8wq9E3jOlAvUwIORAxE-57" value="True" style="text;html=1;align=center;verticalAlign=middle;whiteSpace=wrap;rounded=0;" vertex="1" parent="1">
          <mxGeometry x="480" y="660" width="60" height="30" as="geometry" />
        </mxCell>
        <mxCell id="W8wq9E3jOlAvUwIORAxE-58" value="True" style="text;html=1;align=center;verticalAlign=middle;whiteSpace=wrap;rounded=0;" vertex="1" parent="1">
          <mxGeometry x="350" y="660" width="60" height="30" as="geometry" />
        </mxCell>
        <mxCell id="W8wq9E3jOlAvUwIORAxE-59" value="True" style="text;html=1;align=center;verticalAlign=middle;whiteSpace=wrap;rounded=0;" vertex="1" parent="1">
          <mxGeometry x="220" y="660" width="60" height="30" as="geometry" />
        </mxCell>
      </root>
    </mxGraphModel>
  </diagram>
</mxfile>
